<?xml version="1.0" encoding="UTF-8"?><svg id="a" xmlns="http://www.w3.org/2000/svg" viewBox="0 0 1000 1000"><defs><style>.b{fill:#fce2cb;}.c{stroke-width:4px;}.c,.d{fill:none;}.c,.d,.e{stroke-miterlimit:10;}.c,.e{stroke:#333;}.f{fill:#333;}.d{stroke:#00a99d;stroke-width:14px;}.e{fill:#edf7fd;stroke-width:24px;}</style></defs><rect class="b" x="0" y="0" width="1000" height="1000"/><rect class="e" x="201" y="249.18" width="598.5" height="364.58" rx="60" ry="60"/><path class="c" d="M258.32,249.56h92.98v364.3h-92.98c-31.39,0-56.87-25.48-56.87-56.87v-250.56c0-31.39,25.48-56.87,56.87-56.87Z"/><circle class="d" cx="677.02" cy="368.9" r="85.24"/><path class="f" d="M640.77,819.41h-280.65c-23.28,0-38.1-22.58-26.99-41.14l36.14-60.41c7.58-12.67,22.2-20.57,38.1-20.57h186.17c15.9,0,30.52,7.89,38.1,20.57l36.14,60.41c11.1,18.56-3.71,41.14-26.99,41.14Z"/><rect class="f" x="482.94" y="617.2" width="34.2" height="140.97"/></svg>