<?xml version="1.0" encoding="UTF-8"?><svg id="a" xmlns="http://www.w3.org/2000/svg" viewBox="0 0 1000 1000"><defs><style>.b{fill:#fce2cb;}.c{stroke-width:4px;}.c,.d{fill:none;}.c,.d,.e{stroke-miterlimit:10;}.c,.e{stroke:#333;}.f{fill:#333;}.d{stroke:#00a99d;stroke-width:14px;}.e{fill:#edf7fd;stroke-width:24px;}</style></defs><path class="b" d="M500,0h0C775.96,0,1000,224.04,1000,500h0c0,275.96-224.04,500-500,500h0C224.04,1000,0,775.96,0,500H0C0,224.04,224.04,0,500,0Z"/><rect class="e" x="140.92" y="176.77" width="718.16" height="437.48" rx="60" ry="60"/><path class="c" d="M198.33,177.23h122.93v437.14h-122.93c-31.39,0-56.87-25.48-56.87-56.87V234.1c0-31.39,25.48-56.87,56.87-56.87Z"/><circle class="d" cx="712.11" cy="320.43" r="102.29"/><path class="f" d="M668.62,861h-336.76c-27.94,0-45.71-27.1-32.39-49.37l43.36-72.49c9.1-15.21,26.64-24.68,45.72-24.68h223.39c19.08,0,36.62,9.47,45.72,24.68l43.36,72.49c13.32,22.27-4.46,49.37-32.39,49.37Z"/><rect class="f" x="479.23" y="618.37" width="41.04" height="169.15"/></svg>